<svg xmlns="http://www.w3.org/2000/svg" xmlns:xlink="http://www.w3.org/1999/xlink" contentStyleType="text/css" data-diagram-type="ACTIVITY" height="509px" preserveAspectRatio="none" style="width:230px;height:509px;background:#FFFFFF;" version="1.1" viewBox="0 0 230 509" width="230px" zoomAndPan="magnify"><defs/><g><ellipse cx="124.0005" cy="20" fill="#222222" rx="10" ry="10" style="stroke:#222222;stroke-width:1;"/><rect fill="#F1F1F1" height="33.9688" rx="12.5" ry="12.5" style="stroke:#181818;stroke-width:0.5;" width="92.0005" x="78.0003" y="50"/><text fill="#000000" font-family="sans-serif" font-size="12" lengthAdjust="spacing" textLength="72.0005" x="88.0003" y="71.1387">&#26597;&#25214;&#20511;&#38405;&#35760;&#24405;</text><polygon fill="#F1F1F1" points="88.0816,103.9688,159.9195,103.9688,171.9195,115.9688,159.9195,127.9688,88.0816,127.9688,76.0816,115.9688,88.0816,103.9688" style="stroke:#181818;stroke-width:0.5;"/><text fill="#000000" font-family="sans-serif" font-size="11" lengthAdjust="spacing" textLength="71.8379" x="88.0816" y="119.7769">&#23384;&#22312;&#19988;&#26410;&#24402;&#36824;?</text><text fill="#000000" font-family="sans-serif" font-size="11" lengthAdjust="spacing" textLength="19.0083" x="57.0733" y="113.3745">yes</text><text fill="#000000" font-family="sans-serif" font-size="11" lengthAdjust="spacing" textLength="13.7017" x="171.9195" y="113.3745">no</text><rect fill="#F1F1F1" height="33.9688" rx="12.5" ry="12.5" style="stroke:#181818;stroke-width:0.5;" width="92.0005" x="17" y="137.9688"/><text fill="#000000" font-family="sans-serif" font-size="12" lengthAdjust="spacing" textLength="72.0005" x="27" y="159.1074">&#35745;&#31639;&#26159;&#21542;&#36229;&#26399;</text><rect fill="#F1F1F1" height="33.9688" rx="12.5" ry="12.5" style="stroke:#181818;stroke-width:0.5;" width="104.0006" x="11" y="191.9375"/><text fill="#000000" font-family="sans-serif" font-size="12" lengthAdjust="spacing" textLength="84.0006" x="21" y="213.0762">&#26356;&#26032;&#20511;&#38405;&#20026;&#24402;&#36824;</text><rect fill="#F1F1F1" height="33.9688" rx="12.5" ry="12.5" style="stroke:#181818;stroke-width:0.5;" width="92.0005" x="17" y="294.3086"/><text fill="#000000" font-family="sans-serif" font-size="12" lengthAdjust="spacing" textLength="72.0005" x="27" y="315.4473">&#21019;&#24314;&#32602;&#37329;&#35760;&#24405;</text><polygon fill="#F1F1F1" points="49.0812,245.9063,76.9194,245.9063,88.9194,257.9063,76.9194,269.9063,49.0812,269.9063,37.0812,257.9063,49.0812,245.9063" style="stroke:#181818;stroke-width:0.5;"/><text fill="#000000" font-family="sans-serif" font-size="11" lengthAdjust="spacing" textLength="19.0083" x="67.0003" y="280.1167">yes</text><text fill="#000000" font-family="sans-serif" font-size="11" lengthAdjust="spacing" textLength="27.8382" x="49.0812" y="261.7144">&#36229;&#26399;?</text><polygon fill="#F1F1F1" points="63.0003,348.2773,75.0003,360.2773,63.0003,372.2773,51.0003,360.2773,63.0003,348.2773" style="stroke:#181818;stroke-width:0.5;"/><rect fill="#F1F1F1" height="33.9688" rx="12.5" ry="12.5" style="stroke:#181818;stroke-width:0.5;" width="104.0006" x="11" y="392.2773"/><text fill="#000000" font-family="sans-serif" font-size="12" lengthAdjust="spacing" textLength="84.0006" x="21" y="413.416">&#26356;&#26032;&#21103;&#26412;&#20026;&#22312;&#39302;</text><rect fill="#F1F1F1" height="33.9688" rx="12.5" ry="12.5" style="stroke:#181818;stroke-width:0.5;" width="68.0004" x="151.0006" y="137.9688"/><text fill="#000000" font-family="sans-serif" font-size="12" lengthAdjust="spacing" textLength="48.0004" x="161.0006" y="159.1074">&#22833;&#36133;&#36820;&#22238;</text><polygon fill="#F1F1F1" points="124.0005,432.2461,136.0005,444.2461,124.0005,456.2461,112.0005,444.2461,124.0005,432.2461" style="stroke:#181818;stroke-width:0.5;"/><ellipse cx="124.0005" cy="487.2461" fill="none" rx="11" ry="11" style="stroke:#222222;stroke-width:1;"/><ellipse cx="124.0005" cy="487.2461" fill="#222222" rx="6" ry="6" style="stroke:#222222;stroke-width:1;"/><line style="stroke:#181818;stroke-width:1;" x1="124.0005" x2="124.0005" y1="30" y2="50"/><polygon fill="#181818" points="120.0005,40,124.0005,50,128.0005,40,124.0005,44" style="stroke:#181818;stroke-width:1;"/><line style="stroke:#181818;stroke-width:1;" x1="63.0003" x2="63.0003" y1="171.9375" y2="191.9375"/><polygon fill="#181818" points="59.0003,181.9375,63.0003,191.9375,67.0003,181.9375,63.0003,185.9375" style="stroke:#181818;stroke-width:1;"/><line style="stroke:#181818;stroke-width:1;" x1="63.0003" x2="63.0003" y1="269.9063" y2="294.3086"/><polygon fill="#181818" points="59.0003,284.3086,63.0003,294.3086,67.0003,284.3086,63.0003,288.3086" style="stroke:#181818;stroke-width:1;"/><line style="stroke:#181818;stroke-width:1;" x1="88.9194" x2="119.0006" y1="257.9063" y2="257.9063"/><polygon fill="#181818" points="115.0006,301.293,119.0006,311.293,123.0006,301.293,119.0006,305.293" style="stroke:#181818;stroke-width:1;"/><line style="stroke:#181818;stroke-width:1;" x1="119.0006" x2="119.0006" y1="257.9063" y2="360.2773"/><line style="stroke:#181818;stroke-width:1;" x1="119.0006" x2="75.0003" y1="360.2773" y2="360.2773"/><polygon fill="#181818" points="85.0003,356.2773,75.0003,360.2773,85.0003,364.2773,81.0003,360.2773" style="stroke:#181818;stroke-width:1;"/><line style="stroke:#181818;stroke-width:1;" x1="63.0003" x2="63.0003" y1="328.2773" y2="348.2773"/><polygon fill="#181818" points="59.0003,338.2773,63.0003,348.2773,67.0003,338.2773,63.0003,342.2773" style="stroke:#181818;stroke-width:1;"/><line style="stroke:#181818;stroke-width:1;" x1="63.0003" x2="63.0003" y1="225.9063" y2="245.9063"/><polygon fill="#181818" points="59.0003,235.9063,63.0003,245.9063,67.0003,235.9063,63.0003,239.9063" style="stroke:#181818;stroke-width:1;"/><line style="stroke:#181818;stroke-width:1;" x1="63.0003" x2="63.0003" y1="372.2773" y2="392.2773"/><polygon fill="#181818" points="59.0003,382.2773,63.0003,392.2773,67.0003,382.2773,63.0003,386.2773" style="stroke:#181818;stroke-width:1;"/><line style="stroke:#181818;stroke-width:1;" x1="76.0816" x2="63.0003" y1="115.9688" y2="115.9688"/><line style="stroke:#181818;stroke-width:1;" x1="63.0003" x2="63.0003" y1="115.9688" y2="137.9688"/><polygon fill="#181818" points="59.0003,127.9688,63.0003,137.9688,67.0003,127.9688,63.0003,131.9688" style="stroke:#181818;stroke-width:1;"/><line style="stroke:#181818;stroke-width:1;" x1="171.9195" x2="185.0008" y1="115.9688" y2="115.9688"/><line style="stroke:#181818;stroke-width:1;" x1="185.0008" x2="185.0008" y1="115.9688" y2="137.9688"/><polygon fill="#181818" points="181.0008,127.9688,185.0008,137.9688,189.0008,127.9688,185.0008,131.9688" style="stroke:#181818;stroke-width:1;"/><line style="stroke:#181818;stroke-width:1;" x1="63.0003" x2="63.0003" y1="426.2461" y2="444.2461"/><line style="stroke:#181818;stroke-width:1;" x1="63.0003" x2="112.0005" y1="444.2461" y2="444.2461"/><polygon fill="#181818" points="102.0005,440.2461,112.0005,444.2461,102.0005,448.2461,106.0005,444.2461" style="stroke:#181818;stroke-width:1;"/><line style="stroke:#181818;stroke-width:1;" x1="185.0008" x2="185.0008" y1="171.9375" y2="444.2461"/><line style="stroke:#181818;stroke-width:1;" x1="185.0008" x2="136.0005" y1="444.2461" y2="444.2461"/><polygon fill="#181818" points="146.0005,440.2461,136.0005,444.2461,146.0005,448.2461,142.0005,444.2461" style="stroke:#181818;stroke-width:1;"/><line style="stroke:#181818;stroke-width:1;" x1="124.0005" x2="124.0005" y1="83.9688" y2="103.9688"/><polygon fill="#181818" points="120.0005,93.9688,124.0005,103.9688,128.0005,93.9688,124.0005,97.9688" style="stroke:#181818;stroke-width:1;"/><line style="stroke:#181818;stroke-width:1;" x1="124.0005" x2="124.0005" y1="456.2461" y2="476.2461"/><polygon fill="#181818" points="120.0005,466.2461,124.0005,476.2461,128.0005,466.2461,124.0005,470.2461" style="stroke:#181818;stroke-width:1;"/><!--SRC=[NOxV2W516CNlvodcSlSLx8LdKKQKbipSk7FZtnrQJ7QoAIk9HKcYvMNs-yo-1MDJSdlE-VqwN1GQWkGm2B5_XrQGohQE3X2F7L8fKGjs4jGwkNYeDX2Fz4FcRIhApALMat6RK9hJqU8PJL7kOR3IvpQgm34n-YUS739ZShbci6cCDjlzgzuKz7ouNP_nBEqElpyePMwnKlgHzlUejaQgrkcgun1MvOnQRktp1vP7VGhrmmD__gu-A1Ur-Wi0]--></g></svg>