<svg xmlns="http://www.w3.org/2000/svg" xmlns:xlink="http://www.w3.org/1999/xlink" contentStyleType="text/css" data-diagram-type="ACTIVITY" height="426px" preserveAspectRatio="none" style="width:326px;height:426px;background:#FFFFFF;" version="1.1" viewBox="0 0 326 426" width="326px" zoomAndPan="magnify"><defs/><g><ellipse cx="134.7099" cy="20" fill="#222222" rx="10" ry="10" style="stroke:#222222;stroke-width:1;"/><rect fill="#F1F1F1" height="33.9688" rx="12.5" ry="12.5" style="stroke:#181818;stroke-width:0.5;" width="128.0008" x="70.7095" y="50"/><text fill="#000000" font-family="sans-serif" font-size="12" lengthAdjust="spacing" textLength="108.0008" x="80.7095" y="71.1387">&#26816;&#26597;&#26159;&#21542;&#26377;&#22312;&#39302;&#21103;&#26412;</text><polygon fill="#F1F1F1" points="122.7099,103.9688,146.7099,103.9688,158.7099,115.9688,146.7099,127.9688,122.7099,127.9688,110.7099,115.9688,122.7099,103.9688" style="stroke:#181818;stroke-width:0.5;"/><text fill="#000000" font-family="sans-serif" font-size="11" lengthAdjust="spacing" textLength="16.8383" x="126.2907" y="119.7769">&#26377;?</text><text fill="#000000" font-family="sans-serif" font-size="11" lengthAdjust="spacing" textLength="19.0083" x="91.7016" y="113.3745">yes</text><text fill="#000000" font-family="sans-serif" font-size="11" lengthAdjust="spacing" textLength="13.7017" x="158.7099" y="113.3745">no</text><rect fill="#F1F1F1" height="33.9688" rx="12.5" ry="12.5" style="stroke:#181818;stroke-width:0.5;" width="80.0005" x="11" y="137.9688"/><text fill="#000000" font-family="sans-serif" font-size="12" lengthAdjust="spacing" textLength="60.0005" x="21" y="159.1074">&#19981;&#20801;&#35768;&#39044;&#32422;</text><rect fill="#F1F1F1" height="33.9688" rx="12.5" ry="12.5" style="stroke:#181818;stroke-width:0.5;" width="92.0005" x="172.4193" y="137.9688"/><text fill="#000000" font-family="sans-serif" font-size="12" lengthAdjust="spacing" textLength="72.0005" x="182.4193" y="159.1074">&#36827;&#20837;&#39044;&#32422;&#38431;&#21015;</text><rect fill="#F1F1F1" height="33.9688" rx="12.5" ry="12.5" style="stroke:#181818;stroke-width:0.5;" width="116.0007" x="160.4192" y="191.9375"/><text fill="#000000" font-family="sans-serif" font-size="12" lengthAdjust="spacing" textLength="96.0007" x="170.4192" y="213.0762">&#26377;&#21103;&#26412;&#24402;&#36824;&#26102;&#36890;&#30693;</text><polygon fill="#F1F1F1" points="177.0006,245.9063,259.8385,245.9063,271.8385,257.9063,259.8385,269.9063,177.0006,269.9063,165.0006,257.9063,177.0006,245.9063" style="stroke:#181818;stroke-width:0.5;"/><text fill="#000000" font-family="sans-serif" font-size="11" lengthAdjust="spacing" textLength="82.8378" x="177.0006" y="261.7144">&#22312;&#26377;&#25928;&#26399;&#20869;&#21462;&#20070;?</text><text fill="#000000" font-family="sans-serif" font-size="11" lengthAdjust="spacing" textLength="19.0083" x="145.9923" y="255.312">yes</text><text fill="#000000" font-family="sans-serif" font-size="11" lengthAdjust="spacing" textLength="13.7017" x="271.8385" y="255.312">no</text><rect fill="#F1F1F1" height="33.9688" rx="12.5" ry="12.5" style="stroke:#181818;stroke-width:0.5;" width="68.0004" x="121.0005" y="279.9063"/><text fill="#000000" font-family="sans-serif" font-size="12" lengthAdjust="spacing" textLength="48.0004" x="131.0005" y="301.0449">&#39044;&#32422;&#25104;&#21151;</text><rect fill="#F1F1F1" height="33.9688" rx="12.5" ry="12.5" style="stroke:#181818;stroke-width:0.5;" width="68.0004" x="247.8383" y="279.9063"/><text fill="#000000" font-family="sans-serif" font-size="12" lengthAdjust="spacing" textLength="48.0004" x="257.8383" y="301.0449">&#39044;&#32422;&#36807;&#26399;</text><polygon fill="#F1F1F1" points="218.4196,319.875,230.4196,331.875,218.4196,343.875,206.4196,331.875,218.4196,319.875" style="stroke:#181818;stroke-width:0.5;"/><polygon fill="#F1F1F1" points="134.7099,349.875,146.7099,361.875,134.7099,373.875,122.7099,361.875,134.7099,349.875" style="stroke:#181818;stroke-width:0.5;"/><ellipse cx="134.7099" cy="404.875" fill="none" rx="11" ry="11" style="stroke:#222222;stroke-width:1;"/><ellipse cx="134.7099" cy="404.875" fill="#222222" rx="6" ry="6" style="stroke:#222222;stroke-width:1;"/><line style="stroke:#181818;stroke-width:1;" x1="134.7099" x2="134.7099" y1="30" y2="50"/><polygon fill="#181818" points="130.7099,40,134.7099,50,138.7099,40,134.7099,44" style="stroke:#181818;stroke-width:1;"/><line style="stroke:#181818;stroke-width:1;" x1="218.4196" x2="218.4196" y1="171.9375" y2="191.9375"/><polygon fill="#181818" points="214.4196,181.9375,218.4196,191.9375,222.4196,181.9375,218.4196,185.9375" style="stroke:#181818;stroke-width:1;"/><line style="stroke:#181818;stroke-width:1;" x1="165.0006" x2="155.0006" y1="257.9063" y2="257.9063"/><line style="stroke:#181818;stroke-width:1;" x1="155.0006" x2="155.0006" y1="257.9063" y2="279.9063"/><polygon fill="#181818" points="151.0006,269.9063,155.0006,279.9063,159.0006,269.9063,155.0006,273.9063" style="stroke:#181818;stroke-width:1;"/><line style="stroke:#181818;stroke-width:1;" x1="271.8385" x2="281.8385" y1="257.9063" y2="257.9063"/><line style="stroke:#181818;stroke-width:1;" x1="281.8385" x2="281.8385" y1="257.9063" y2="279.9063"/><polygon fill="#181818" points="277.8385,269.9063,281.8385,279.9063,285.8385,269.9063,281.8385,273.9063" style="stroke:#181818;stroke-width:1;"/><line style="stroke:#181818;stroke-width:1;" x1="155.0006" x2="155.0006" y1="313.875" y2="331.875"/><line style="stroke:#181818;stroke-width:1;" x1="155.0006" x2="206.4196" y1="331.875" y2="331.875"/><polygon fill="#181818" points="196.4196,327.875,206.4196,331.875,196.4196,335.875,200.4196,331.875" style="stroke:#181818;stroke-width:1;"/><line style="stroke:#181818;stroke-width:1;" x1="281.8385" x2="281.8385" y1="313.875" y2="331.875"/><line style="stroke:#181818;stroke-width:1;" x1="281.8385" x2="230.4196" y1="331.875" y2="331.875"/><polygon fill="#181818" points="240.4196,327.875,230.4196,331.875,240.4196,335.875,236.4196,331.875" style="stroke:#181818;stroke-width:1;"/><line style="stroke:#181818;stroke-width:1;" x1="218.4196" x2="218.4196" y1="225.9063" y2="245.9063"/><polygon fill="#181818" points="214.4196,235.9063,218.4196,245.9063,222.4196,235.9063,218.4196,239.9063" style="stroke:#181818;stroke-width:1;"/><line style="stroke:#181818;stroke-width:1;" x1="110.7099" x2="51.0002" y1="115.9688" y2="115.9688"/><line style="stroke:#181818;stroke-width:1;" x1="51.0002" x2="51.0002" y1="115.9688" y2="137.9688"/><polygon fill="#181818" points="47.0002,127.9688,51.0002,137.9688,55.0002,127.9688,51.0002,131.9688" style="stroke:#181818;stroke-width:1;"/><line style="stroke:#181818;stroke-width:1;" x1="158.7099" x2="218.4196" y1="115.9688" y2="115.9688"/><line style="stroke:#181818;stroke-width:1;" x1="218.4196" x2="218.4196" y1="115.9688" y2="137.9688"/><polygon fill="#181818" points="214.4196,127.9688,218.4196,137.9688,222.4196,127.9688,218.4196,131.9688" style="stroke:#181818;stroke-width:1;"/><line style="stroke:#181818;stroke-width:1;" x1="51.0002" x2="51.0002" y1="171.9375" y2="361.875"/><line style="stroke:#181818;stroke-width:1;" x1="51.0002" x2="122.7099" y1="361.875" y2="361.875"/><polygon fill="#181818" points="112.7099,357.875,122.7099,361.875,112.7099,365.875,116.7099,361.875" style="stroke:#181818;stroke-width:1;"/><line style="stroke:#181818;stroke-width:1;" x1="218.4196" x2="218.4196" y1="343.875" y2="361.875"/><line style="stroke:#181818;stroke-width:1;" x1="218.4196" x2="146.7099" y1="361.875" y2="361.875"/><polygon fill="#181818" points="156.7099,357.875,146.7099,361.875,156.7099,365.875,152.7099,361.875" style="stroke:#181818;stroke-width:1;"/><line style="stroke:#181818;stroke-width:1;" x1="134.7099" x2="134.7099" y1="83.9688" y2="103.9688"/><polygon fill="#181818" points="130.7099,93.9688,134.7099,103.9688,138.7099,93.9688,134.7099,97.9688" style="stroke:#181818;stroke-width:1;"/><line style="stroke:#181818;stroke-width:1;" x1="134.7099" x2="134.7099" y1="373.875" y2="393.875"/><polygon fill="#181818" points="130.7099,383.875,134.7099,393.875,138.7099,383.875,134.7099,387.875" style="stroke:#181818;stroke-width:1;"/><!--SRC=[NOr12e9G443t_nH_gLVGHMS9KX928zsqCyZI89AWb18-54gBo5rK45x66VKM_QyGqMOMysRUivt-n24AdbraASOvX1ac0IIN9bj0a6DoLOcXKualUp9rXff9fQbcouHIfNoimPlLjqTpcbUlJ2NQoDQeP5ejhOiZU6c7cfY17wbYBUoj5zxRkeWnkZVkeMAfW2B4q_m4Tpuc31OURFRbC_jFSqydHZ-45HE_l-qlheibrxJO71WwwQRjMECF]--></g></svg>